<?xml version="1.0" encoding="UTF-8"?>
<svg width="154px" height="36px" viewBox="0 0 154 36" version="1.1" xmlns="http://www.w3.org/2000/svg" xmlns:xlink="http://www.w3.org/1999/xlink">
    <!-- Generator: Sketch 52.6 (67491) - http://www.bohemiancoding.com/sketch -->
    <title>Group Copy 2</title>
    <desc>Created with Sketch.</desc>
    <defs>
        <linearGradient x1="49.8569767%" y1="99.6833333%" x2="49.8569767%" y2="-0.0141456583%" id="linearGradient-1">
            <stop stop-color="#FF9400" offset="0%"></stop>
            <stop stop-color="#FF6500" offset="100%"></stop>
        </linearGradient>
        <linearGradient x1="50.1%" y1="100.103652%" x2="50.1%" y2="0.126264045%" id="linearGradient-2">
            <stop stop-color="#FFBD01" offset="0%"></stop>
            <stop stop-color="#FFE201" offset="100%"></stop>
        </linearGradient>
    </defs>
    <g id="Hiveon-ID" stroke="none" stroke-width="1" fill="none" fill-rule="evenodd">
        <g id="Pool-Main-OLD" transform="translate(-123.000000, -19.000000)">
            <g id="Group-Copy-2" transform="translate(123.000000, 19.000000)">
                <path d="M6.10885174,4.76655052 L2.62822691,6.80935789 C1.17204714,7.63364858 0,9.71229467 0,11.3967148 L0,23.7252364 C0,25.4096565 1.17204714,27.4524639 2.62822691,28.3125933 L6.10885174,30.3554007 L6.10885174,4.76655052 Z" id="XMLID_17_-Copy" fill="url(#linearGradient-1)" fill-rule="nonzero"></path>
                <path d="M28.9815292,6.77351916 L25.5009044,4.7307118 L25.5009044,30.2478845 L28.9815292,28.2050772 C30.437709,27.3807865 31.6097561,25.3021404 31.6097561,23.6177203 L31.6097561,11.3608761 C31.6097561,9.67645595 30.437709,7.63364858 28.9815292,6.77351916 Z" id="XMLID_16_-Copy" fill="url(#linearGradient-2)" fill-rule="nonzero"></path>
                <path d="M12.7149356,34.1543056 L13.1766511,34.4410154 C14.6328309,35.2653061 16.9769252,35.2653061 18.3975884,34.4410154 L18.8593039,34.1543056 L18.8593039,20.8939771 C18.8593039,20.8939771 17.9713894,19.3529119 15.7693615,19.3529119 C13.5673335,19.3529119 12.679419,20.8939771 12.679419,20.8939771 L12.679419,34.1543056 L12.7149356,34.1543056 Z" id="XMLID_33_-Copy" fill="#FFA801" fill-rule="nonzero"></path>
                <path d="M18.433105,0.645097063 C16.9769252,-0.179193629 14.6328309,-0.179193629 13.2121677,0.645097063 L12.7504522,0.931806869 L12.7504522,13.977103 C12.7504522,13.977103 13.6383667,15.5181682 15.8403946,15.5181682 C18.0424226,15.5181682 18.9303371,13.977103 18.9303371,13.977103 L18.9303371,0.895968143 L18.433105,0.645097063 Z" id="XMLID_34_-Copy" fill="#FF5400" fill-rule="nonzero"></path>
                <path d="M42.184,26 L42.184,9.032 L45.448,9.032 L45.448,16.208 L53.464,16.208 L53.464,9.032 L56.728,9.032 L56.728,26 L53.464,26 L53.464,18.752 L45.448,18.752 L45.448,26 L42.184,26 Z M60.784,26 L60.784,12.896 L63.976,12.896 L63.976,26 L60.784,26 Z M62.344,11.096 L60.088,8.816 L62.344,6.56 L64.624,8.816 L62.344,11.096 Z M70.672,26 L66.136,12.896 L69.592,12.896 L71.992,20.72 L72.736,23.408 L73.552,20.696 L76.24,12.896 L79.576,12.896 L74.656,26 L70.672,26 Z M87.712,26.288 C83.584,26.288 80.968,24.8 80.968,19.664 C80.968,14.312 83.68,12.584 87.376,12.584 C91.168,12.584 92.704,15.08 92.704,19.184 L92.704,20.336 L84.16,20.336 C84.16,23.216 85.96,23.696 88.288,23.696 C89.2,23.696 90.76,23.384 91.84,23.168 L92.344,25.64 C91.264,25.976 89.512,26.288 87.712,26.288 Z M84.232,18.2 L89.416,18.2 C89.44,16.232 88.648,14.864 87.064,14.864 C85.456,14.864 84.376,16.04 84.232,18.2 Z M101.128,26.288 C97.072,26.288 94.792,23.744 94.792,19.568 C94.792,15.152 97.432,12.56 101.32,12.56 C105.688,12.56 107.704,15.128 107.704,19.448 C107.704,23.96 104.92,26.288 101.128,26.288 Z M101.296,23.72 C103.84,23.72 104.464,21.824 104.464,19.448 C104.464,17.216 103.84,15.104 101.248,15.104 C98.704,15.104 98.008,17.216 98.008,19.472 C98.008,21.896 98.8,23.72 101.296,23.72 Z M110.656,26 L110.656,12.896 L113.848,12.896 L113.848,14.288 C114.808,13.592 116.416,12.56 118.24,12.56 C122.248,12.56 122.512,14.984 122.512,17.696 L122.512,26 L119.344,26 L119.344,18.056 C119.344,16.064 118.96,15.344 117.208,15.344 C115.888,15.344 114.64,15.944 113.848,16.376 L113.848,26 L110.656,26 Z M132.832,26 L132.832,9.032 L134.248,9.032 L134.248,26 L132.832,26 Z M140.008,26 L140.008,9.032 L144.16,9.032 C149.536,9.032 153.448,12.008 153.448,17.456 C153.448,23.432 149.848,26 144.304,26 L140.008,26 Z M141.4,24.776 L144.568,24.776 C149.104,24.776 152.056,22.424 152.056,17.72 C152.056,12.608 148.768,10.256 144.088,10.256 L141.4,10.256 L141.4,24.776 Z" id="Hiveon-ID" fill="#FFFFFF"></path>
            </g>
        </g>
    </g>
</svg>