<?xml version="1.0" standalone="no"?>
<!DOCTYPE svg PUBLIC "-//W3C//DTD SVG 20010904//EN"
 "http://www.w3.org/TR/2001/REC-SVG-20010904/DTD/svg10.dtd">
<svg version="1.0" xmlns="http://www.w3.org/2000/svg"
 width="1491.000000pt" height="1491.000000pt" viewBox="0 0 1491.000000 1491.000000"
 preserveAspectRatio="xMidYMid meet">
<metadata>
Created by potrace 1.11, written by Peter Selinger 2001-2013
</metadata>
<g transform="translate(0.000000,1491.000000) scale(0.100000,-0.100000)"
fill="#000000" stroke="none">
<path d="M7278 14905 c-1 -1 -39 -6 -83 -9 -85 -7 -136 -14 -171 -21 -12 -3
-39 -7 -60 -10 -151 -22 -432 -116 -564 -188 -71 -39 -254 -149 -260 -157 -3
-4 -12 -10 -20 -13 -8 -4 -30 -16 -49 -28 -19 -11 -93 -54 -165 -96 -175 -101
-166 -96 -371 -213 -99 -57 -223 -128 -275 -158 -52 -30 -120 -68 -150 -85
-30 -16 -59 -33 -65 -37 -5 -4 -194 -113 -420 -243 -225 -129 -498 -285 -605
-347 -107 -62 -215 -124 -240 -138 -25 -13 -70 -39 -100 -57 -30 -18 -147 -86
-260 -150 -113 -65 -223 -128 -245 -141 -22 -13 -65 -38 -95 -54 -30 -17 -68
-39 -85 -49 -16 -10 -95 -55 -175 -101 -260 -149 -305 -175 -325 -187 -11 -7
-29 -17 -40 -22 -11 -6 -42 -24 -70 -40 -27 -16 -84 -49 -125 -72 -41 -23
-167 -95 -279 -161 -112 -65 -205 -118 -207 -118 -7 0 -102 -66 -164 -114
-137 -105 -229 -195 -367 -359 -239 -283 -453 -723 -529 -1082 -41 -195 -39
-29 -39 -2985 0 -1532 4 -2816 8 -2855 5 -38 15 -97 23 -131 7 -33 15 -69 17
-80 10 -53 83 -289 96 -309 4 -5 13 -28 20 -50 31 -93 154 -325 240 -454 31
-46 61 -91 66 -99 47 -72 174 -220 270 -317 139 -139 287 -250 490 -365 35
-20 749 -430 1120 -643 143 -82 278 -160 300 -172 78 -45 232 -133 400 -229
94 -54 186 -107 205 -118 19 -11 157 -90 305 -176 256 -147 443 -254 1075
-617 151 -87 289 -166 305 -175 104 -58 446 -257 477 -276 21 -13 40 -24 42
-24 3 0 47 -26 98 -59 161 -101 284 -156 483 -216 125 -38 333 -79 470 -92
150 -14 509 -8 640 12 338 51 576 135 830 291 86 53 638 378 721 424 21 12 44
26 49 30 6 4 30 19 55 32 50 28 386 223 410 238 21 13 97 58 146 86 23 13 185
107 360 210 176 103 337 196 359 209 22 12 81 46 130 75 50 29 104 60 120 70
17 9 64 37 105 62 41 24 82 47 90 51 8 4 44 26 80 48 36 22 77 45 93 52 15 6
27 15 27 19 0 4 4 8 10 8 5 0 54 26 107 58 54 32 143 84 198 116 55 32 107 62
115 67 8 5 62 36 120 69 58 33 112 65 120 70 40 24 448 263 623 364 17 10 91
52 162 94 72 41 144 83 160 92 90 51 220 133 223 141 2 5 10 9 17 9 7 0 15 3
17 8 2 4 28 26 58 48 56 43 218 197 281 269 106 121 244 321 331 480 134 244
237 543 284 825 11 66 15 5542 4 5620 -6 36 -12 81 -14 100 -6 43 -22 122 -36
175 -6 22 -13 50 -15 61 -3 12 -23 73 -45 136 -161 467 -474 913 -835 1189
-59 45 -268 179 -280 179 -3 0 -22 11 -43 24 -33 21 -243 143 -332 194 -19 11
-91 52 -160 92 -69 40 -138 80 -155 90 -16 9 -52 30 -80 47 -27 16 -57 32 -65
36 -8 4 -28 15 -45 26 -27 16 -617 359 -690 401 -16 9 -129 75 -250 145 -121
70 -245 142 -275 158 -30 16 -62 35 -70 41 -8 6 -24 16 -35 22 -39 21 -1171
677 -1250 723 -44 27 -111 66 -149 87 -38 21 -83 47 -100 57 -17 10 -121 71
-231 134 -110 64 -211 123 -225 133 -54 37 -460 231 -545 260 -90 31 -279 83
-345 94 -19 3 -45 8 -57 10 -12 3 -46 7 -75 11 -29 3 -66 8 -83 11 -33 5 -461
14 -467 9z"/>
</g>
</svg>
